PathFileType	4	(X/Y/Z)	E:\Qualisys_Data\Carbon_Farble_Plate\Data\Amateur_Runner\S2\T2\S2T2V23_c3d.trc
DataRate	CameraRate	NumFrames	NumMarkers	Units	OrigDataRate	OrigDataStartFrame	OrigNumFrames
200.000000	200.000000	5	39	mm	200.000000	267	306
Frame#	Time	LSHO			RSHO			LICST			RICST			LASIS			LHEEL			RASIS			LTROC			RTROC			SACR			LTH1			LSK4			LTH2			LTH3			RHM5			LSK2			LTH4			RTH1			LTOE			RTH2			RTH3			RTH4			LLEP			RLEP			LSK1			LSK3			RSK1			LHM5			RSK2			LFT1			RSK3			RSK4			LLME			RLME			RTOE			RHEEL			RFT1			RFT2			LFT2			
		X1	Y1	Z1	X2	Y2	Z2	X3	Y3	Z3	X4	Y4	Z4	X5	Y5	Z5	X6	Y6	Z6	X7	Y7	Z7	X8	Y8	Z8	X9	Y9	Z9	X10	Y10	Z10	X11	Y11	Z11	X12	Y12	Z12	X13	Y13	Z13	X14	Y14	Z14	X15	Y15	Z15	X16	Y16	Z16	X17	Y17	Z17	X18	Y18	Z18	X19	Y19	Z19	X20	Y20	Z20	X21	Y21	Z21	X22	Y22	Z22	X23	Y23	Z23	X24	Y24	Z24	X25	Y25	Z25	X26	Y26	Z26	X27	Y27	Z27	X28	Y28	Z28	X29	Y29	Z29	X30	Y30	Z30	X31	Y31	Z31	X32	Y32	Z32	X33	Y33	Z33	X34	Y34	Z34	X35	Y35	Z35	X36	Y36	Z36	X37	Y37	Z37	X38	Y38	Z38	X39	Y39	Z39	

268	1.335	2495.66796875	1460.381469726562	-443.09912109375	2458.39111328125	1453.51025390625	-138.0218811035156	2435.43359375	989.3456420898438	-422.3497619628906	2441.402099609375	998.6853637695312	-122.1853637695312	2484.5634765625	936.7310791015624	-408.5770568847656	1970.32958984375	211.7449188232422	-286.1453552246094	2498.4501953125	950.2411499023438	-151.5402526855469	2336.488525390625	881.9669189453125	-412.0791931152344	2376.233642578125	897.7023315429688	-99.6654815673828	2345.195068359375	1036.243408203125	-278.5212097167969	2390.075927734375	627.7845458984375	-414.6697692871094	2104.76318359375	352.445556640625	-385.649169921875	2308.86181640625	654.2200927734375	-421.0767211914062	2355.12353515625	533.1947631835938	-389.4567565917969	2369.50830078125	230.0441131591797	-106.4333267211914	2164.908203125	430.3102111816406	-404.4846496582031	2274.575927734375	563.0358276367188	-394.029052734375	2625.983154296875	719.2378540039062	-109.9545745849609	2136.650146484375	48.96119689941406	-307.7134094238281	2558.370361328125	679.2241821289062	-97.0322494506836	2677.2177734375	633.0317993164062	-127.7322235107422	2606.6220703125	592.9833374023438	-117.6625671386719	2288.77197265625	504.241455078125	-393.4197082519531	2641.146728515625	576.3506469726562	-119.8202056884766	2227.827392578125	381.686279296875	-396.4710083007812	2166.74365234375	303.1636352539062	-383.6991271972656	2588.630126953125	477.148681640625	-120.2570114135742	2079.794677734375	62.0717887878418	-365.4004821777344	2542.536865234375	543.8333740234375	-117.5619201660156	1960.633544921875	185.2769927978516	-261.6480407714844	2504.349365234375	419.4430847167969	-127.8385620117188	2461.789306640625	486.8885498046875	-125.6324844360352	2029.991088867188	181.1525115966797	-351.6547241210938	2330.751708984375	344.1471252441406	-149.3984680175781	2434.7529296875	185.5594024658203	-157.6924591064453	2280.206298828125	373.7291259765625	-213.0208282470703	2274.113037109375	339.83984375	-241.5319061279297	2255.968505859375	356.581298828125	-187.1051788330078	1947.306274414062	183.9425201416016	-313.5487365722656
269	1.34	2517.6025390625	1465.222534179688	-441.7744445800781	2477.698974609375	1457.921997070312	-138.33642578125	2458.978515625	993.4224853515624	-421.7666320800781	2463.826904296875	1003.757690429688	-122.525032043457	2507.59228515625	939.5030517578124	-408.0410461425781	1988.107543945312	224.4636993408203	-290.7215270996094	2520.68408203125	954.65185546875	-151.3401947021484	2359.5546875	887.3374633789062	-412.4520263671875	2399.54931640625	903.019775390625	-98.77346801757812	2367.636474609375	1040.14111328125	-278.9293823242188	2407.236083984375	632.3576049804688	-415.2552490234375	2117.49560546875	360.1967163085938	-387.8240356445312	2325.899658203125	660.8638916015625	-421.9290161132812	2369.954833984375	538.660400390625	-390.3226013183594	2411.0234375	221.7344818115234	-105.3865737915039	2177.16943359375	438.2738647460938	-405.7756652832031	2289.756103515625	570.3905029296875	-395.0302734375	2650.8525390625	725.111083984375	-110.4091720581055	2140.859375	47.37981414794922	-308.9844970703125	2585.511962890625	684.5347290039062	-97.16101837158205	2701.617431640625	638.6868896484375	-128.2570648193359	2631.00048828125	599.0733642578125	-117.5099258422852	2302.183349609375	510.9784240722656	-394.1370239257812	2665.234619140625	581.7040405273438	-120.349983215332	2240.54541015625	390.3688659667969	-397.9577331542969	2179.2646484375	311.213134765625	-386.4141540527344	2616.1669921875	479.0681457519531	-119.8528289794922	2084.630126953125	63.65317153930664	-366.4915161132812	2566.826416015625	543.3790893554688	-117.6778869628906	1975.527709960938	199.182861328125	-264.5162353515625	2535.020751953125	417.1525268554688	-127.7762680053711	2488.96875	481.5823059082031	-126.2921447753906	2042.870971679688	188.1994171142578	-354.9050598144531	2365.887451171875	332.4304809570312	-149.4080200195312	2478.662353515625	180.3606567382812	-156.3017578125	2313.318115234375	359.0949401855469	-213.0447540283203	2309.81982421875	323.8499145507812	-241.1324920654297	2290.811279296875	338.9690856933594	-189.2046813964844	1961.619384765625	198.0063629150391	-317.1497802734375
270	1.345	2539.323486328125	1470.0146484375	-440.2301635742188	2496.85986328125	1461.685668945312	-138.5803527832031	2482.541259765625	996.681884765625	-421.3428344726562	2486.4375	1008.170532226562	-122.3763275146484	2530.967529296875	942.9985961914062	-407.4938354492188	2006.187377929688	237.1172180175781	-294.4659729003906	2542.788818359375	958.6723022460938	-151.1645050048828	2382.195556640625	892.5830688476562	-413.2603149414062	2422.935302734375	907.786376953125	-97.47255706787108	2390.89306640625	1043.573120117188	-279.318115234375	2422.529541015625	637.4384155273438	-414.319580078125	2131.04638671875	368.1134948730469	-390.0917358398438	2343.66796875	667.5107421875	-422.9883728027344	2384.18701171875	543.884765625	-390.8052062988281	2453.02587890625	214.1730804443359	-104.4007186889648	2190.621337890625	446.4176330566406	-406.5625	2305.21337890625	577.923583984375	-395.7518615722656	2674.8759765625	730.0078735351562	-110.2398910522461	2144.873046875	45.94489288330078	-310.2611389160156	2609.830078125	689.9744873046875	-97.20980072021484	2725.19677734375	643.8378295898438	-128.4672088623047	2654.927978515625	604.5071411132812	-117.6727981567383	2315.858642578125	518.55517578125	-395.3126831054688	2688.459716796875	586.6170043945312	-120.89208984375	2253.393310546875	398.6558837890625	-399.2286682128906	2192.566650390625	319.0411682128906	-389.3068237304688	2643.857666015625	480.6469116210938	-119.5581436157227	2090.34228515625	66.6122817993164	-367.6982421875	2591.06005859375	542.13134765625	-117.1181945800781	1991.497680664062	213.8133697509766	-267.7935485839844	2565.869873046875	414.4273376464844	-127.2838363647461	2516.36181640625	476.3920288085938	-125.8145370483398	2056.3125	195.2790679931641	-357.7099304199219	2400.990966796875	321.31591796875	-149.3979644775391	2525.361572265625	177.9399566650391	-152.0219421386719	2347.254638671875	344.1452026367188	-213.5470581054688	2345.291748046875	308.114990234375	-241.1072845458984	2325.4443359375	322.7455444335938	-189.6965789794922	1977.488159179688	212.4339447021484	-320.3133850097656
271	1.35	2561.39501953125	1474.321655273438	-438.4212036132812	2516.545654296875	1465.632446289062	-139.1982879638672	2506.162841796875	1000.160583496094	-421.023193359375	2509.494140625	1012.929565429688	-122.2842864990234	2554.19921875	945.9415893554688	-406.4224548339844	2025.088989257812	249.989990234375	-298.6400756835938	2565.048828125	962.4786376953124	-151.0058441162109	2405.025634765625	897.8550415039062	-414.0751037597656	2446.254638671875	912.3273315429688	-97.37969207763672	2413.647705078125	1047.6474609375	-279.5303955078125	2439.246826171875	642.096435546875	-415.1010437011719	2144.8974609375	375.7699279785156	-391.5849609375	2361.49658203125	674.2123413085938	-423.8062133789062	2399.24462890625	549.3983154296875	-391.7444152832031	2495.10595703125	207.0704345703125	-102.9263153076172	2204.36669921875	454.5258483886719	-406.7779235839844	2320.760009765625	585.2667846679688	-396.3923950195312	2699.240478515625	735.220947265625	-110.8942718505859	2149.072998046875	44.94905471801758	-311.0680847167969	2634.050537109375	694.3428955078125	-96.66095733642578	2748.88916015625	648.4896850585938	-129.1144866943359	2678.1494140625	609.7128295898438	-117.6207122802734	2330.202392578125	525.5323486328125	-395.7007446289062	2711.437744140625	591.5097045898438	-121.0436401367188	2267.329345703125	406.4566650390625	-401.1629333496094	2206.482421875	326.4857788085938	-391.5660400390625	2670.54345703125	481.6015014648438	-119.1326675415039	2096.07421875	70.1229248046875	-368.6679992675781	2614.49462890625	540.1259155273438	-116.6137008666992	2008.197143554688	228.2867126464844	-271.5409545898438	2596.974609375	411.2539978027344	-126.8148422241211	2543.082275390625	470.8791198730469	-125.5444564819336	2071.76611328125	204.3804626464844	-361.0132751464844	2437.030029296875	309.9815063476562	-149.1981811523438	2570.208984375	175.1912689208984	-150.6691131591797	2381.9755859375	329.1258850097656	-213.993408203125	2382.313720703125	292.482421875	-241.02587890625	2361.09912109375	306.8076782226562	-189.6677856445312	1994.944458007812	227.1198883056641	-324.1506958007812
272	1.355	2583.117431640625	1478.249633789062	-436.83203125	2535.820556640625	1469.47607421875	-139.5456237792969	2529.091064453125	1003.11328125	-420.6257019042969	2531.496826171875	1016.661499023438	-122.4836502075195	2577.47314453125	949.2335205078124	-406.2283630371094	2044.726684570312	262.6819458007812	-303.1578369140625	2587.4599609375	966.2516479492188	-150.9858703613281	2427.89208984375	902.5155029296876	-414.5341491699219	2468.810302734375	916.6560668945312	-97.03351593017578	2435.65576171875	1050.923828125	-279.2108154296875	2455.869140625	646.6727294921875	-415.6304931640625	2159.09619140625	383.656005859375	-392.7146911621094	2378.950439453125	680.33935546875	-424.5404357910156	2413.389404296875	554.469970703125	-392.9871215820312	2537.15087890625	200.0290069580078	-102.2556304931641	2218.823974609375	462.3419494628906	-407.3432006835938	2335.62060546875	592.7394409179688	-396.1966857910156	2722.60400390625	738.6961059570312	-110.4584808349609	2152.806640625	44.12561798095703	-312.300537109375	2657.67138671875	699.2299194335938	-96.19452667236328	2771.921630859375	652.1434326171875	-129.2498016357422	2701.2861328125	613.3486328125	-117.4113845825195	2342.81640625	532.6856079101562	-396.1066589355469	2733.473876953125	593.7256469726562	-121.4227066040039	2281.641357421875	413.6248779296875	-402.5889587402344	2220.73046875	334.4141235351562	-394.0935363769531	2697.368408203125	482.3981018066406	-118.5756683349609	2101.3876953125	74.33879852294922	-369.6268615722656	2638.543212890625	537.6953125	-115.4437866210938	2026.231567382812	242.8209381103516	-275.459228515625	2627.145263671875	407.908447265625	-126.5375061035156	2571.262939453125	465.0958557128906	-125.4357223510742	2084.04248046875	212.0236511230469	-364.5825500488281	2473.339599609375	298.6428833007812	-148.9051055908203	2614.129638671875	172.2156829833984	-149.0254211425781	2417.261962890625	313.99169921875	-214.1159973144531	2419.837890625	277.2970275878906	-240.7237091064453	2397.866455078125	290.40185546875	-189.7966156005859	2013.019897460938	241.4130706787109	-328.3368835449219
